<?xml version="1.0" encoding="UTF-8" standalone="no"?>
<!DOCTYPE svg PUBLIC "-//W3C//DTD SVG 1.1//EN" "http://www.w3.org/Graphics/SVG/1.1/DTD/svg11.dtd">
<svg width="100%" height="100%" viewBox="0 0 1280 266" version="1.1" xmlns="http://www.w3.org/2000/svg" xmlns:xlink="http://www.w3.org/1999/xlink" xml:space="preserve" style="fill-rule:evenodd;clip-rule:evenodd;stroke-linejoin:round;stroke-miterlimit:1.41421;">
    <g transform="matrix(1,0,0,1,-7.3,11.539)">
        <g id="Pinside-Black" transform="matrix(3.05191,0,0,3.05191,15.7326,2.35663)">
            <g opacity="0.75">
                <path d="M107.116,39.342C102.677,38.257 99.948,33.785 101.033,29.346C102.118,24.94 106.557,22.211 110.996,23.263L111.194,23.329L133.125,28.918C132.665,17.146 121.946,11.952 110.438,12.05C102.381,12.149 94.259,12.215 86.171,12.708C80.943,31.681 79.858,49.798 83.146,69.263C90.215,69.197 97.318,69.164 104.387,69.132C103.302,63.148 102.677,57.097 102.546,51.015C102.546,51.015 106.721,51.375 110.01,51.408C118.691,51.475 126.286,47.496 130.231,40.658L108.727,39.604C108.234,39.572 107.676,39.474 107.116,39.342Z" style="fill-rule:nonzero;"/>
                <path d="M155.748,41.907L139.438,41.118C139.143,50.456 139.504,59.793 140.524,69.066C146.64,69.066 152.722,69.066 158.838,69.099C158.016,59.859 157.721,50.554 157.951,41.249C157.326,41.676 156.537,41.907 155.748,41.907Z" style="fill-rule:nonzero;"/>
                <path d="M158.149,35.593C158.379,30.628 158.774,25.631 159.299,20.599C153.216,20.599 147.166,20.632 141.083,20.632C140.655,23.986 140.294,27.307 140.03,30.628L156.8,34.903C157.293,35.035 157.754,35.265 158.149,35.593Z" style="fill-rule:nonzero;"/>
                <path d="M199.907,20.534C199.48,27.702 199.249,34.903 199.151,42.104C195.239,35.002 191.523,27.866 188.005,20.566L167.685,20.632C166.138,36.744 166.006,52.987 167.29,69.132L185.605,69.197C185.11,62.029 184.847,54.829 184.847,47.627C188.991,54.895 193.233,62.095 197.573,69.23L217.992,69.297C217.63,53.02 217.663,36.777 218.09,20.534C212.04,20.501 205.989,20.501 199.907,20.534Z" style="fill-rule:nonzero;"/>
                <path d="M253.505,41.085C249.986,39.572 246.106,38.027 245.907,35.89C245.776,34.574 246.961,33.818 248.735,33.818C253.701,33.818 258.042,37.632 258.042,37.632C260.704,33.489 262.021,31.385 264.586,27.176C259.717,22.244 252.255,19.35 245.448,19.416C236.24,19.515 225.554,25.433 225.292,35.199C225.062,43.583 231.901,46.312 237.524,48.745C240.845,50.192 244.397,51.408 244.527,53.908C244.593,55.157 243.443,56.012 241.667,56.012C234.532,56.012 229.533,51.442 229.533,51.442C226.837,55.65 225.488,57.788 222.825,61.996C228.087,68.047 237.261,70.184 244.757,70.316C253.635,70.479 265.012,64.528 265.177,54.631C265.276,46.346 258.996,43.451 253.505,41.085Z" style="fill-rule:nonzero;"/>
                <path d="M273.661,33.456L289.149,34.541C288.983,29.871 288.786,25.236 288.457,20.566L270.274,20.501C270.471,25.236 270.636,29.971 270.701,34.706C271.457,33.818 272.542,33.357 273.661,33.456Z" style="fill-rule:nonzero;"/>
                <path d="M270.8,39.342C270.932,49.305 270.833,59.267 270.471,69.197L288.786,69.132C289.246,61.076 289.444,53.053 289.377,45.03L272.477,40.361C271.819,40.23 271.228,39.868 270.8,39.342Z" style="fill-rule:nonzero;"/>
                <path d="M317.788,19.909C310.882,19.909 303.846,20.139 296.874,20.566C297.269,25.433 297.532,30.266 297.696,35.1L320.581,36.679C321.143,36.711 321.699,36.81 322.227,36.941C326.632,38.191 329.164,42.761 327.946,47.167C326.697,51.54 322.193,54.073 317.819,52.888L297.927,47.397C297.927,54.631 297.696,61.865 297.236,69.099C304.241,69.56 311.342,69.724 318.281,69.724C333.276,69.724 348.301,61.307 348.071,44.8C347.84,28.458 332.78,19.941 317.788,19.909Z" style="fill-rule:nonzero;"/>
                <path d="M372.074,50.16C378.256,50.16 382.826,50.192 389.008,50.192C389.238,44.635 389.206,45.128 388.746,39.539L371.845,39.539C371.746,38.158 371.68,35.824 371.548,34.442L391.474,34.41C391.014,29.708 390.193,25.071 389.074,20.501C376.481,20.566 363.855,20.599 351.262,20.632C353.793,36.646 353.989,52.954 351.919,69.034C365.071,69.066 378.224,69.132 391.343,69.23C392.33,64.627 392.953,59.991 393.25,55.289C386.115,55.256 379.012,55.224 371.878,55.224C371.976,53.874 372.01,51.54 372.074,50.16Z" style="fill-rule:nonzero;"/>
            </g>
        </g>
        <g id="Pinside-Black1" transform="matrix(3.05191,0,0,3.05191,9.73255,-5.64337)">
            <path d="M107.116,39.342C102.677,38.257 99.948,33.785 101.033,29.346C102.118,24.94 106.557,22.211 110.996,23.263L111.194,23.329L133.125,28.918C132.665,17.146 121.946,11.952 110.438,12.05C102.381,12.149 94.259,12.215 86.171,12.708C80.943,31.681 79.858,49.798 83.146,69.263C90.215,69.197 97.318,69.164 104.387,69.132C103.302,63.148 102.677,57.097 102.546,51.015C102.546,51.015 106.721,51.375 110.01,51.408C118.691,51.475 126.286,47.496 130.231,40.658L108.727,39.604C108.234,39.572 107.676,39.474 107.116,39.342Z" style="fill:white;fill-rule:nonzero;"/>
            <path d="M155.748,41.907L139.438,41.118C139.143,50.456 139.504,59.793 140.524,69.066C146.64,69.066 152.722,69.066 158.838,69.099C158.016,59.859 157.721,50.554 157.951,41.249C157.326,41.676 156.537,41.907 155.748,41.907Z" style="fill:white;fill-rule:nonzero;"/>
            <path d="M158.149,35.593C158.379,30.628 158.774,25.631 159.299,20.599C153.216,20.599 147.166,20.632 141.083,20.632C140.655,23.986 140.294,27.307 140.03,30.628L156.8,34.903C157.293,35.035 157.754,35.265 158.149,35.593Z" style="fill:white;fill-rule:nonzero;"/>
            <path d="M199.907,20.534C199.48,27.702 199.249,34.903 199.151,42.104C195.239,35.002 191.523,27.866 188.005,20.566L167.685,20.632C166.138,36.744 166.006,52.987 167.29,69.132L185.605,69.197C185.11,62.029 184.847,54.829 184.847,47.627C188.991,54.895 193.233,62.095 197.573,69.23L217.992,69.297C217.63,53.02 217.663,36.777 218.09,20.534C212.04,20.501 205.989,20.501 199.907,20.534Z" style="fill:white;fill-rule:nonzero;"/>
            <path d="M253.505,41.085C249.986,39.572 246.106,38.027 245.907,35.89C245.776,34.574 246.961,33.818 248.735,33.818C253.701,33.818 258.042,37.632 258.042,37.632C260.704,33.489 262.021,31.385 264.586,27.176C259.717,22.244 252.255,19.35 245.448,19.416C236.24,19.515 225.554,25.433 225.292,35.199C225.062,43.583 231.901,46.312 237.524,48.745C240.845,50.192 244.397,51.408 244.527,53.908C244.593,55.157 243.443,56.012 241.667,56.012C234.532,56.012 229.533,51.442 229.533,51.442C226.837,55.65 225.488,57.788 222.825,61.996C228.087,68.047 237.261,70.184 244.757,70.316C253.635,70.479 265.012,64.528 265.177,54.631C265.276,46.346 258.996,43.451 253.505,41.085Z" style="fill:white;fill-rule:nonzero;"/>
            <path d="M273.661,33.456L289.149,34.541C288.983,29.871 288.786,25.236 288.457,20.566L270.274,20.501C270.471,25.236 270.636,29.971 270.701,34.706C271.457,33.818 272.542,33.357 273.661,33.456Z" style="fill:white;fill-rule:nonzero;"/>
            <path d="M270.8,39.342C270.932,49.305 270.833,59.267 270.471,69.197L288.786,69.132C289.246,61.076 289.444,53.053 289.377,45.03L272.477,40.361C271.819,40.23 271.228,39.868 270.8,39.342Z" style="fill:white;fill-rule:nonzero;"/>
            <path d="M317.788,19.909C310.882,19.909 303.846,20.139 296.874,20.566C297.269,25.433 297.532,30.266 297.696,35.1L320.581,36.679C321.143,36.711 321.699,36.81 322.227,36.941C326.632,38.191 329.164,42.761 327.946,47.167C326.697,51.54 322.193,54.073 317.819,52.888L297.927,47.397C297.927,54.631 297.696,61.865 297.236,69.099C304.241,69.56 311.342,69.724 318.281,69.724C333.276,69.724 348.301,61.307 348.071,44.8C347.84,28.458 332.78,19.941 317.788,19.909Z" style="fill:white;fill-rule:nonzero;"/>
            <path d="M372.074,50.16C378.256,50.16 382.826,50.192 389.008,50.192C389.238,44.635 389.206,45.128 388.746,39.539L371.845,39.539C371.746,38.158 371.68,35.824 371.548,34.442L391.474,34.41C391.014,29.708 390.193,25.071 389.074,20.501C376.481,20.566 363.855,20.599 351.262,20.632C353.793,36.646 353.989,52.954 351.919,69.034C365.071,69.066 378.224,69.132 391.343,69.23C392.33,64.627 392.953,59.991 393.25,55.289C386.115,55.256 379.012,55.224 371.878,55.224C371.976,53.874 372.01,51.54 372.074,50.16Z" style="fill:white;fill-rule:nonzero;"/>
        </g>
        <g transform="matrix(1,0,0,1,7.3,-11.539)">
            <g transform="matrix(3.05191,0,0,3.05191,2.43255,5.89563)">
                <path d="M397.952,17.998L400.253,17.998L400.253,24.377L401.8,24.377L401.8,17.998L404.068,17.998L404.068,16.682L397.952,16.682L397.952,17.998Z" style="fill:white;fill-rule:nonzero;"/>
            </g>
            <g transform="matrix(3.05191,0,0,3.05191,2.43255,5.89563)">
                <path d="M410.151,16.682L408.771,21.943L407.357,16.682L405.054,16.682L405.054,24.377L406.501,24.377L406.501,18.328L408.014,24.377L409.493,24.377L411.038,18.328L411.038,24.377L412.452,24.377L412.452,16.682L410.151,16.682Z" style="fill:white;fill-rule:nonzero;"/>
            </g>
        </g>
        <g id="Ball" transform="matrix(3.07817,0,0,3.06145,77.7105,98.5712)">
            <g id="Outer-circle" transform="matrix(0.315491,0,0,0.315968,-19.4799,-25.3909)">
                <path d="M103.8,8.357C51.2,8.357 8.6,50.957 8.6,103.557C8.6,156.157 51.2,198.757 103.8,198.757C156.4,198.757 199,156.157 199,103.557C198.9,51.057 156.3,8.457 103.8,8.357ZM103.8,12.657C154.1,12.657 194.8,53.357 194.8,103.657C194.8,106.922 194.628,110.147 194.294,113.323C189.475,159.07 150.835,194.657 103.8,194.657C53.5,194.657 12.8,153.957 12.8,103.657C12.8,53.357 53.5,12.657 103.8,12.657Z" style="fill-rule:nonzero;"/>
            </g>
            <g id="Inner-circle" transform="matrix(0.545701,0,0,0.54868,-89.5677,-31.0779)">
                <path d="M188.447,17.523C217.548,17.523 241.139,41.018 241.139,70C241.139,98.982 217.548,122.477 188.447,122.477C159.346,122.477 135.755,98.982 135.755,70C135.755,41.018 159.346,17.523 188.447,17.523ZM188.447,21.621C214.173,21.581 237.11,43.279 237.11,70C237.11,96.721 214.597,118.343 188.447,118.382C162.431,118.421 139.784,96.721 139.784,70C139.784,43.279 161.571,21.662 188.447,21.621Z" style="fill:white;"/>
            </g>
            <g id="Reflect-bottom" transform="matrix(0.545701,0,0,0.54868,-24.931,-31.0779)">
                <path d="M43.603,110.54C43.949,110.731 44.432,110.699 44.678,110.253C44.84,109.959 44.793,109.62 44.562,109.389C39.59,104.091 38.145,98.736 39.763,92.575C41.151,87.391 44.388,85.318 47.857,85.721C49.071,85.894 50.285,86.24 51.442,86.7C55.315,88.197 56.587,87.737 58.958,85.03C60.865,82.842 62.311,82.381 65.028,83.36C65.606,83.591 66.184,83.591 66.762,83.475C67.977,83.187 69.075,82.612 70.058,81.805C71.792,80.423 73.527,79.502 75.897,80.193C77.285,80.596 78.383,81.633 78.846,83.015C79.424,84.339 80.753,85.203 82.257,85.145C84.8,85.088 87.229,83.994 88.963,82.151C90.755,80.538 93.241,80.02 95.496,80.826C96.652,81.229 97.346,82.381 97.173,83.591C97.057,85.088 96.305,87.794 97.115,89.176C97.693,90.213 98.56,89.407 99.427,89.407C99.601,89.407 99.774,89.407 99.948,89.522C100.584,89.925 101.046,90.616 101.162,91.422C101.219,92.287 100.93,93.092 100.988,93.956C100.988,94.186 101.046,94.417 101.162,94.59C101.393,94.82 101.682,94.935 102.029,94.935C102.318,94.878 102.665,94.762 102.896,94.647C103.416,94.359 103.879,94.014 104.284,93.668C104.515,93.438 104.804,93.208 105.093,92.977C105.382,92.804 105.729,92.747 106.076,92.862C106.191,92.92 106.249,92.977 106.307,93.092C106.827,93.726 106.481,94.302 106.365,94.878C105.729,97.757 104.63,100.463 103.243,103.055C103.012,103.458 103.185,103.976 103.59,104.149C103.75,104.245 103.947,104.27 104.139,104.233C104.053,104.321 103.966,104.408 103.879,104.495C88.154,120.043 63.698,122.865 44.851,111.29C44.448,111.04 44.024,110.794 43.603,110.54ZM42.021,109.474C42.513,109.827 43.017,110.169 43.541,110.502C43.014,110.182 42.493,109.847 42.021,109.474Z" style="fill:rgb(255,213,0);"/>
            </g>
            <g id="Curvey" transform="matrix(0.315491,0,0,0.315968,-19.4799,-25.3909)">
                <path d="M161.3,160.957C160.9,161.657 161.2,162.557 161.9,162.857C162.4,163.157 163.421,162.758 163.921,162.358C195.121,130.958 196.2,81.057 166.9,47.857C166.379,47.267 165.921,46.825 164.9,47.337C164.1,47.738 164.42,49.031 164.62,49.631C177.587,80.685 174.2,95.757 173,100.557C172.1,104.157 170.5,108.457 167.8,109.257C165.3,110.057 163.7,106.657 162.6,105.357C161.1,103.557 159.2,103.857 158,105.857C157.3,107.157 155.6,107.557 154.4,106.857C154.3,106.757 154.2,106.657 154,106.657C153.2,105.857 152.5,105.057 152,104.057C150.2,101.457 147.7,99.157 144.8,99.357C141,99.657 139.1,102.257 136.9,104.757C134.8,107.257 132.4,109.657 129.899,111.757C128,113.257 126,112.657 124.6,110.557C122.8,107.957 120.4,105.757 117.5,104.457C115.1,103.357 112.4,104.157 110.8,106.157C109,108.457 107.2,110.857 105.3,113.057C103.4,115.257 98.9,115.357 97.2,113.357C95.9,111.657 93.5,111.257 91.7,112.357C89.6,113.757 87.6,115.357 85.7,117.057C83.8,118.957 81.3,119.957 78.7,120.057C77.4,119.957 76.2,119.357 75.4,118.357C73.3,114.957 72.8,111.957 71.8,108.757C70.5,104.757 68.2,97.557 63.8,97.057C59.8,96.657 58.4,100.857 57.5,102.857C55.1,108.457 52.4,113.757 48.5,118.457C47.1,120.057 44.7,120.157 43.1,118.757C43,118.657 43,118.657 42.9,118.557C36.574,111.963 27.331,83.278 42.3,49.957C42.7,49.257 42.4,48.357 41.7,48.057C41.1,47.757 40.4,47.857 40,48.357C9.7,83.557 13.254,136.658 48.454,166.858C51.454,169.458 54.736,171.79 58.036,173.89C58.636,174.29 59.549,174.277 60,173.457C60.281,172.946 60.2,172.357 59.8,171.957C51.2,162.757 48.7,153.457 51.5,142.758C53.9,133.757 59.5,130.157 65.5,130.857C67.6,131.157 69.7,131.757 71.7,132.557C78.4,135.157 80.6,134.357 84.7,129.657C88,125.857 90.5,125.057 95.2,126.757C96.2,127.157 97.2,127.157 98.2,126.957C100.3,126.457 102.2,125.457 103.9,124.057C106.9,121.657 109.9,120.057 114,121.257C116.4,121.957 118.3,123.757 119.1,126.157C120.1,128.457 122.4,129.957 125,129.857C129.399,129.757 133.6,127.857 136.6,124.657C139.7,121.857 144,120.957 147.9,122.357C149.9,123.057 151.1,125.057 150.8,127.157C150.6,129.757 149.3,134.457 150.7,136.857C151.7,138.657 153.2,137.257 154.7,137.257C155,137.257 155.3,137.257 155.6,137.457C156.7,138.157 157.5,139.357 157.7,140.757C157.8,142.258 157.3,143.657 157.4,145.157C157.4,145.557 157.5,145.957 157.7,146.257C158.1,146.657 158.6,146.857 159.2,146.857C159.7,146.757 160.3,146.557 160.7,146.357C161.6,145.857 162.4,145.257 163.1,144.657C163.5,144.257 164,143.857 164.5,143.457C165,143.157 165.6,143.057 166.2,143.257C166.4,143.357 166.5,143.457 166.6,143.657C167.5,144.757 166.9,145.757 166.7,146.757C165.6,151.757 163.7,156.457 161.3,160.957Z" style="fill-rule:nonzero;"/>
            </g>
            <g id="Curvey-Top" transform="matrix(0.315491,0,0,0.315968,-19.4799,-25.3909)">
                <path d="M170.652,66.338C176.416,85.822 173.952,96.748 173,100.557C172.1,104.157 170.5,108.457 167.8,109.257C165.3,110.057 163.7,106.657 162.6,105.357C161.1,103.557 159.2,103.857 158,105.857C157.3,107.157 155.6,107.557 154.4,106.857C154.3,106.757 154.2,106.657 154,106.657C153.2,105.857 152.5,105.057 152,104.057C150.2,101.457 147.7,99.157 144.8,99.357C141,99.657 139.1,102.257 136.9,104.757C134.8,107.257 132.4,109.657 129.899,111.757C128,113.257 126,112.657 124.6,110.557C122.8,107.957 120.4,105.757 117.5,104.457C115.1,103.357 112.4,104.157 110.8,106.157C109,108.457 107.2,110.857 105.3,113.057C103.4,115.257 98.9,115.357 97.2,113.357C95.9,111.657 93.5,111.257 91.7,112.357C89.6,113.757 87.6,115.357 85.7,117.057C83.8,118.957 81.3,119.957 78.7,120.057C77.4,119.957 76.2,119.357 75.4,118.357C73.3,114.957 72.8,111.957 71.8,108.757C70.5,104.757 68.2,97.557 63.8,97.057C59.8,96.657 58.4,100.857 57.5,102.857C55.1,108.457 52.4,113.757 48.5,118.457C47.1,120.057 44.7,120.157 43.1,118.757C43,118.657 43,118.657 42.9,118.557C37.358,113.098 31.633,97.689 34.475,76.979C34.687,75.435 34.561,79.106 34.5,80.657C34.217,87.866 35.3,95.157 37.4,102.157C38.8,106.357 40.6,110.557 43.8,113.657C44,113.857 44.2,114.057 44.4,114.157C45.9,115.157 47.823,114.537 48.823,113.037C52.723,108.037 54.187,102.733 56.987,96.633C57.987,94.433 60.2,90.257 64.3,91.057C68.4,91.857 70.9,98.157 72.1,102.157C72.9,105.457 74.2,108.557 75.9,111.457C76.7,112.357 77.9,112.857 79.1,112.857C81.6,112.457 83.963,111.125 85.763,109.325C87.563,107.525 89.6,105.957 91.8,104.457C94,103.157 95.4,103.557 97.4,105.257C99.7,107.057 102.942,106.733 105.142,104.733C107.142,102.533 108.677,100.096 110.477,97.996C111.977,95.996 114.9,95.457 117.1,96.657C120,98.057 122.1,100.457 123.9,102.957C125.3,104.857 127.217,105.652 129.217,104.252C131.917,102.352 133.495,100.391 135.895,98.091C138.295,95.791 140.2,93.357 144,93.257C147,93.157 149.3,95.757 150.9,98.257C151.4,99.257 152.1,100.157 152.9,100.957C154.6,102.257 155.201,102.167 156.588,100.538C158.306,98.522 159.8,98.457 161.5,100.257C162.7,101.557 164.351,105.688 167.082,104.51C169.429,103.496 170.729,98.785 171.429,95.285C172.635,85.444 172.447,72.407 170.652,66.338Z" style="fill:white;"/>
            </g>
            <g id="Reflect-Top" transform="matrix(0.237953,0,0,0.239252,-22.0839,-109.555)">
                <path d="M57.352,445.875C60.132,428.579 63.775,423.447 66.802,417.25C67.332,416.326 66.935,415.137 66.006,414.741L64.833,414.552C73.06,405.211 82.791,397.377 93.584,391.234C110.599,381.734 129.345,377.088 147.987,377.087C174.957,377.085 201.712,386.809 222.722,405.629C225.603,408.202 229.214,411.149 231.75,414.067C230.603,413.483 229.942,413.944 229.4,414.376C228.737,414.905 228.987,416.134 229.253,416.926C232.674,422.325 235.069,427.949 237.378,438.884C237.494,439.438 237.998,442.336 238.106,442.893C237.76,441.588 237.285,438.735 236.878,437.367C239.903,450.103 240.817,465.118 238.102,477.736C237.174,482.358 235.716,488.169 232.003,489.49C231.648,489.616 231.309,489.681 230.986,489.693C228.081,489.581 226.472,485.193 225.069,483.679C223.947,482.496 222.892,481.967 221.885,482.011C220.786,481.965 219.746,482.6 218.745,483.811C217.807,485.033 216.986,485.668 216.07,485.716C215.364,485.681 214.594,485.31 213.667,484.603C212.606,483.547 211.678,482.358 211.015,481.038C208.915,477.769 205.904,474.37 201.984,474.432C201.871,474.43 201.756,474.431 201.641,474.434C196.603,474.567 194.349,477.736 191.167,480.774C187.985,483.811 185.466,486.716 181.886,489.226C181.066,489.797 180.272,490.066 179.51,490.09C177.899,490.04 176.442,488.901 175.217,487.245C172.83,483.943 170.046,480.774 166.201,478.925C165.152,478.355 164,478.092 162.862,478.113C160.759,478.081 158.678,479.02 157.358,480.774C154.971,483.547 152.85,486.849 150.198,489.754C148.655,491.151 146.704,491.883 144.756,491.911C143.099,491.888 141.456,491.353 140.082,490.282C138.452,488.903 137.123,488.171 135.664,488.211C134.681,488.184 133.649,488.509 132.432,489.226C129.515,491.207 126.863,493.452 124.477,495.829C122.096,498.201 118.923,499.784 115.617,500.315C114.094,500.262 112.592,499.609 111.576,498.47C109.322,494.64 107.598,490.546 106.538,486.188C104.947,480.906 101.632,472.586 96.196,471.529C95.702,471.433 95.231,471.393 94.78,471.401C90.121,471.317 87.65,476.372 86.425,479.057C82.712,487.113 80.723,494.112 75.553,500.715C74.719,501.96 73.362,502.684 71.975,502.721C71.229,502.702 70.483,502.482 69.811,502.036C69.546,501.904 69.281,501.64 69.016,501.376C64.773,497.282 62.387,491.735 60.53,486.188C57.746,476.944 56.42,467.435 56.686,457.794C56.818,451.455 57.082,447.018 57.352,445.875ZM126.16,409.459C135.094,409.459 142.336,416.672 142.336,425.57C142.336,434.468 135.094,441.682 126.16,441.682C117.227,441.682 109.985,434.468 109.985,425.57C109.985,416.672 117.227,409.459 126.16,409.459Z" style="fill:rgb(0,113,255);"/>
            </g>
            <g id="Hilight" transform="matrix(0.315491,0,0,0.315968,-19.4799,-25.3909)">
                <path d="M86.9,44.057C93.638,44.057 99.1,49.519 99.1,56.257C99.1,62.994 93.638,68.457 86.9,68.457C80.162,68.457 74.7,62.994 74.7,56.257C74.7,49.519 80.162,44.057 86.9,44.057Z" style="fill:white;fill-rule:nonzero;"/>
            </g>
        </g>
    </g>
</svg>
